<?xml version="1.0" encoding="UTF-8"?>
<svg width="17px" height="17px" viewBox="0 0 15 15" version="1.1" xmlns="http://www.w3.org/2000/svg" xmlns:xlink="http://www.w3.org/1999/xlink">
    <!-- Generator: Sketch 54.1 (76490) - https://sketchapp.com -->
    <title>Group 13</title>
    <desc>Created with Sketch.</desc>
    <g id="Approved" stroke="none" stroke-width="1" fill="none" fill-rule="evenodd">
        <g id="Mobile---Product-Page_Ring" transform="translate(-10.000000, -1629.000000)" fill="#01768B">
            <g id="Group-13" transform="translate(10.000000, 1629.000000)">
                <path d="M12.6089306,9.3540573 C13.2431754,8.40213776 13.6129296,7.26356508 13.6129296,6.04099274 C13.6129296,2.70996094 10.8706343,0 7.5,0 C4.12936572,0 1.38718619,2.70996094 1.38718619,6.04099274 C1.38718619,7.26356508 1.75694037,8.40213776 2.39106939,9.3540573 L0,12.8002167 L2.73604207,12.2961044 L3.24626346,15 L5.50115029,11.7499924 C6.12786801,11.9649124 6.80032733,12.0819855 7.50000001,12.0819855 C8.19978846,12.0819855 8.87224778,11.9649124 9.49884971,11.7499924 L11.7538523,15 L12.2639579,12.2961044 L15,12.8002167 L12.6089306,9.3540573 Z M3.72973474,12.7397919 L3.45146372,11.2648773 L1.95912981,11.5399933 L2.96613966,10.0885391 C3.4484529,10.615654 4.02340734,11.0583115 4.66517928,11.3917923 L3.72973474,12.7397919 Z M2.28175277,6.04099274 C2.28175277,3.19747925 4.62268012,0.884056084 7.50000001,0.884056084 C10.3774357,0.884056084 12.718363,3.19747925 12.718363,6.04099274 C12.718363,8.88462067 10.3774357,11.1980438 7.50000001,11.1980438 C4.62268012,11.1980438 2.28175277,8.88462067 2.28175277,6.04099274 Z M11.5485363,11.2648773 L11.2702653,12.7397919 L10.3349365,11.3917923 C10.9767085,11.0583115 11.5516629,10.615654 12.0339762,10.0885391 L13.040986,11.5398788 L11.5485363,11.2648773 Z" id="Shape" fill-rule="nonzero"></path>
                <polygon id="Path" points="6.97087395 7.70875095 5.59732068 6.22437595 5 6.86994139 6.97087395 9 11 4.64556545 10.4026793 4"></polygon>
            </g>
        </g>
    </g>
</svg>