<?xml version="1.0" encoding="UTF-8"?>
<svg width="25px" height="24px" viewBox="0 0 25 24" version="1.1" xmlns="http://www.w3.org/2000/svg" xmlns:xlink="http://www.w3.org/1999/xlink">
    <!-- Generator: sketchtool 62 (101010) - https://sketch.com -->
    <title>63A41ACB-E5C2-4B7B-BCD1-B29079316A01</title>
    <desc>Created with sketchtool.</desc>
    <g id="Type-C" stroke="none" stroke-width="1" fill="none" fill-rule="evenodd">
        <g id="PDP-C-Type-with-SKU-2.1" transform="translate(-1138.000000, -998.000000)" fill="#333333" fill-rule="nonzero">
            <g id="return" transform="translate(1138.000000, 998.000000)">
                <path d="M13.3929346,19.902439 C13.5572023,19.902439 13.6904762,19.7630353 13.6904762,19.5908498 L13.6904762,19.0434589 C13.6904762,18.8712733 13.5572023,18.7317073 13.3929346,18.7317073 C13.2285119,18.7317073 13.0952381,18.8712733 13.0952381,19.0434589 L13.0952381,19.5908498 C13.0952381,19.7630353 13.2285119,19.902439 13.3929346,19.902439 L13.3929346,19.902439 Z" id="Path"></path>
                <path d="M20.5356368,19.902439 C20.7000595,19.902439 20.8333333,19.7630353 20.8333333,19.5908498 L20.8333333,19.0434589 C20.8333333,18.8712733 20.7000595,18.7317073 20.5356368,18.7317073 C20.3713691,18.7317073 20.2380952,18.8712733 20.2380952,19.0434589 L20.2380952,19.5908498 C20.2380952,19.7630353 20.3713691,19.902439 20.5356368,19.902439 L20.5356368,19.902439 Z" id="Path"></path>
                <path d="M16.6666063,20.4878049 C17.095256,20.4878049 17.4974346,20.2923409 17.7705435,19.9514248 C17.8979701,19.7924235 17.8830002,19.5507336 17.7373177,19.4116573 C17.5914527,19.272581 17.370008,19.2887202 17.2425815,19.4479208 C17.1027409,19.6224635 16.8927976,19.7224868 16.6666063,19.7224868 C16.4404152,19.7224868 16.2306543,19.6224635 16.0908138,19.4479208 C15.9633872,19.2887202 15.7419426,19.272581 15.5960776,19.4116573 C15.4502126,19.5507336 15.4354252,19.7924235 15.5628518,19.9514248 C15.8357782,20.2923409 16.2381392,20.4878049 16.6666063,20.4878049 L16.6666063,20.4878049 Z" id="Path"></path>
                <path d="M5.06225776,4.37449098 C5.06225776,4.37449098 8.36995423,7.21499794 8.37300544,7.21762854 C8.93919462,7.7041055 9.8475001,7.29354074 9.8475001,6.55677899 L9.8475001,5.99514138 C10.815304,6.05884 11.7178885,6.30273616 12.4757314,6.70728807 C13.5005548,7.25464512 14.3001611,8.21425808 14.6697382,9.34035173 C14.789498,9.70582018 15.1344748,9.95121951 15.5276988,9.95121951 C15.6213327,9.95121951 15.7151572,9.94370345 15.8086003,9.9395696 C16.2990815,9.91758513 16.6917334,9.49405518 16.6654168,9.01039671 L16.6650353,9.00382019 C16.6154533,8.13984908 16.4009155,7.27512642 16.0446873,6.50303913 C15.371706,5.04435985 14.2210205,3.85419175 12.5272205,2.86451455 C11.6763158,2.36732722 10.7468426,2.08265644 9.84730937,1.80813236 C9.84730937,1.80813236 9.84730937,0.870879696 9.84730937,0.87012809 C9.84730937,0.135245325 8.93557131,-0.274004111 8.37300544,0.20927849 C8.37300544,0.20927849 5.06702526,3.04828224 5.06225776,3.05241605 C4.66140578,3.39683953 4.66216859,4.03081915 5.06225776,4.37449098 L5.06225776,4.37449098 Z M5.54358529,3.59657878 C5.54358529,3.59657878 8.84956547,0.757387192 8.85433301,0.753253335 C8.95464134,0.667194474 9.11502026,0.738784932 9.11502026,0.87012809 L9.11502026,2.08340804 C9.11502026,2.25101618 9.23230095,2.39663985 9.39801949,2.43478387 C9.46838788,2.45094337 9.54695645,2.47198834 9.61923182,2.49416069 C10.5214349,2.76943642 11.3734838,3.02949209 12.1536387,3.4853411 C13.7143298,4.39722705 14.7690931,5.48217031 15.3779991,6.80180254 C15.6970407,7.49346794 15.8892666,8.26893742 15.9336997,9.04346737 C15.9336997,9.04346737 15.9338904,9.04872861 15.9338904,9.04872861 C15.9388486,9.13816972 15.8648569,9.21464565 15.7752278,9.21859156 L15.535899,9.22930199 L15.5276988,9.22948988 C15.4542792,9.22948988 15.3879155,9.1838298 15.3665571,9.11844008 C14.9397698,7.81759801 14.0131571,6.70747596 12.8245222,6.07274473 C11.8757883,5.5661623 10.7329215,5.28468583 9.51930487,5.25856751 C9.30629266,5.25405787 9.11482958,5.39780255 9.11482958,5.61877471 L9.11482958,6.55677899 C9.11482958,6.68605522 8.95483202,6.76008838 8.85414227,6.67365369 C8.85414227,6.67365369 5.5433946,3.83051613 5.5433946,3.83051613 C5.47245409,3.76926027 5.47264478,3.65745887 5.54358529,3.59657878 Z" id="Shape"></path>
                <path d="M1.08831458,16.9242337 L1.97408809,16.9242337 L1.97408809,22.5443298 C1.97408809,23.3470412 2.64356801,24 3.46639894,24 L21.5335835,24 C22.3564145,24 23.0258944,23.3470412 23.0258944,22.5443298 L23.0258944,16.9242337 L23.9116679,16.9242337 C24.6688859,16.9242337 25.2050421,16.1535191 24.9242801,15.4670752 L22.9997637,10.7614934 C22.9442599,10.6256929 22.8094102,10.5365854 22.6596831,10.5365854 L20.724867,10.5365854 C20.522688,10.5365854 20.3586558,10.6965696 20.3586558,10.8937594 C20.3586558,11.0911352 20.522688,11.2511195 20.724867,11.2511195 L22.4113462,11.2511195 C22.4113462,11.2511195 24.2395414,15.7213757 24.2437376,15.7317933 C24.3364348,15.9581895 24.1605771,16.2096996 23.9116679,16.2096996 L12.4385746,16.2096996 C12.2932345,16.2096996 12.1602922,16.1218943 12.1065049,15.9901863 L10.1682556,11.2509334 L19.2598313,11.2509334 C19.4620104,11.2509334 19.6260426,11.0911352 19.6260426,10.8937594 C19.6260426,10.6963836 19.4620104,10.5365854 19.2598313,10.5365854 L2.34049006,10.5365854 C2.19057231,10.5365854 2.05572263,10.6255068 2.00021878,10.7613074 C2.00021878,10.7613074 0.079707756,15.4575878 0.0758931043,15.4670752 C-0.205250349,16.1540771 0.330905823,16.9242337 1.08831458,16.9242337 Z M9.62771246,20.7030233 C9.83008231,20.7030233 9.99411449,20.5432251 9.99411449,20.3458493 L9.99411449,12.7536688 L11.4259623,16.2550904 C11.5922832,16.6615619 11.989775,16.9242337 12.4385746,16.9242337 L22.2932812,16.9242337 L22.2932812,22.5443298 C22.2932812,22.9530337 21.9524377,23.2854659 21.5335835,23.2854659 L9.99411449,23.2854659 L9.99411449,21.7749174 C9.99411449,21.5775416 9.83008231,21.4175574 9.62771246,21.4175574 C9.42553334,21.4175574 9.26150121,21.5775416 9.26150121,21.7749174 L9.26150121,23.2854659 L3.46639894,23.2854659 C3.04754477,23.2854659 2.70670131,22.9530337 2.70670131,22.5443298 L2.70670131,16.9242337 L6.81704111,16.9242337 C7.26011859,16.9242337 7.66543051,16.6563532 7.82965336,16.2549044 L9.26150121,12.7536688 L9.26150121,20.3458493 C9.26150121,20.5432251 9.42553334,20.7030233 9.62771246,20.7030233 L9.62771246,20.7030233 Z M0.756244907,15.7317933 L2.58863632,11.2511195 L9.08736015,11.2511195 C9.08736015,11.2511195 7.14930155,15.9900003 7.14911078,15.9901863 C7.0951328,16.1224524 6.96333489,16.2096996 6.81704111,16.2096996 C6.81704111,16.2096996 1.09594398,16.2096996 1.08831458,16.2096996 C0.839405379,16.2096996 0.663929155,15.9574454 0.756244907,15.7317933 Z" id="Shape"></path>
            </g>
        </g>
    </g>
</svg>