<?xml version="1.0" encoding="UTF-8"?>
<svg width="24px" height="24px" viewBox="0 0 24 24" version="1.1" xmlns="http://www.w3.org/2000/svg" xmlns:xlink="http://www.w3.org/1999/xlink">
    <!-- Generator: sketchtool 62 (101010) - https://sketch.com -->
    <title>2198C009-F519-499E-B040-471781CF5C6B</title>
    <desc>Created with sketchtool.</desc>
    <g id="Type-C" stroke="none" stroke-width="1" fill="none" fill-rule="evenodd">
        <g id="PDP-C-Type-with-SKU-2.1" transform="translate(-970.000000, -998.000000)" fill="#333333" fill-rule="nonzero">
            <g id="aeroplane" transform="translate(970.000000, 998.000000)">
                <path d="M23.9742479,2.0861303 L23.9288683,1.65600269 C23.838109,0.773109184 23.1120349,0.0939603297 22.2044422,0.0260454443 L21.8414051,0.00340714917 C20.7522939,-0.0418694411 19.6858725,0.365619871 18.9144187,1.13532191 L15.284048,4.73481083 L3.39458383,4.71217254 C2.39623188,4.71217254 1.42056974,5.11966185 0.694495596,5.8440873 L0.19531962,6.34212979 C0.0364909,6.50059786 -0.0315785513,6.7722574 0.0138010829,6.99864035 C0.0818705342,7.2250233 0.240699254,7.40612966 0.467597425,7.47404455 L9.92925115,10.0548102 L7.72833889,12.2507248 L3.73493109,12.3865546 C3.32651438,12.3865546 2.94078749,12.5450227 2.64581987,12.8619588 L2.26009297,13.2468098 C2.10126426,13.4052779 2.0331948,13.6542991 2.07857444,13.8806821 C2.14664389,14.107065 2.30547261,14.2655331 2.50968096,14.3560863 L7.59219999,16.2803414 L9.63428353,21.5324258 C9.7250428,21.7588088 9.92925115,21.9172768 10.1561493,21.9399151 C10.3830475,21.9625534 10.5872558,21.8946386 10.7460846,21.7135322 L11.1545013,21.3060429 C11.4267791,21.0343833 11.5856078,20.6721706 11.6309874,20.2194047 L11.7671263,16.2124265 L13.9907284,14.0391501 L16.5546777,23.5019575 C16.6227472,23.7283405 16.8042657,23.9094468 17.0311639,23.9773617 C17.0992334,24 17.144613,24 17.2126824,24 C17.394201,24 17.5757195,23.9320851 17.7118584,23.7962553 L18.2110344,23.2982129 C18.9371085,22.5737874 19.3455252,21.6003407 19.3455252,20.5816174 L19.3455252,8.71915078 L22.8624469,5.18757674 C23.7019701,4.37259811 24.1103868,3.21804506 23.9742479,2.0861303 Z M22.227132,4.55370447 L18.5513816,8.22110829 C18.4606224,8.31166147 18.4152427,8.42485294 18.4152427,8.53804442 L18.4152427,20.5816174 C18.4152427,21.3739578 18.0975853,22.0983832 17.5530297,22.6643406 L17.3261315,22.8907235 L14.6260433,13.0883417 C14.5806637,12.9298737 14.4672146,12.8166822 14.3083859,12.7714056 C14.2630062,12.7714056 14.2403164,12.7487673 14.1949368,12.7487673 C14.0814877,12.7487673 13.9680386,12.7940439 13.8772793,12.8845971 L10.9729827,15.7370223 C10.8822235,15.8275755 10.8368438,15.9181286 10.8368438,16.0539584 L10.7007049,20.2194047 C10.7007049,20.3552345 10.6553253,20.5589791 10.4964966,20.6948089 L10.3376679,20.853277 L8.36365377,15.7596606 C8.31827414,15.6464691 8.22751487,15.5559159 8.09137597,15.5106393 L3.16768566,13.6316608 L3.30382456,13.4958311 C3.37189401,13.4279162 3.55341255,13.2920864 3.78031072,13.2920864 L7.97792688,13.1562566 C8.09137597,13.1562566 8.20482505,13.11098 8.2728945,13.0204269 L11.1545013,10.1453634 C11.2679504,10.0321719 11.31333,9.87370383 11.2679504,9.71523577 C11.2225707,9.5567677 11.1091216,9.44357622 10.9502929,9.39829963 L1.1029123,6.70434251 L1.32981047,6.47795956 C1.87436608,5.93464048 2.62313005,5.61770434 3.39458383,5.61770434 L15.4655665,5.64034264 C15.5790156,5.64034264 15.6924647,5.59506605 15.783224,5.50451287 L19.5497336,1.76919417 C20.1396688,1.1805985 20.9565023,0.863662365 21.7960255,0.908938955 L22.1590626,0.93157725 C22.6128589,0.954215545 22.975896,1.31642827 23.0212756,1.74655588 L23.0666552,2.17668348 C23.1574145,3.05957699 22.8624469,3.91983221 22.227132,4.55370447 Z" id="Shape"></path>
            </g>
        </g>
    </g>
</svg>